<svg xmlns="http://www.w3.org/2000/svg" viewBox="0 0 1200 630" width="1200" height="630">
  <defs>
    <linearGradient id="bg" x1="0" y1="0" x2="1" y2="1">
      <stop offset="0%" stop-color="#10b981"/>
      <stop offset="100%" stop-color="#0891b2"/>
    </linearGradient>
    <linearGradient id="card" x1="0" y1="0" x2="0" y2="1">
      <stop offset="0%" stop-color="#ffffff"/>
      <stop offset="100%" stop-color="#f1f5f9"/>
    </linearGradient>
  </defs>
  <rect width="1200" height="630" fill="url(#bg)"/>
  <circle cx="1050" cy="120" r="180" fill="rgba(255,255,255,0.12)"/>
  <circle cx="120" cy="540" r="140" fill="rgba(255,255,255,0.10)"/>
  <g transform="translate(80,140)">
    <text x="0" y="0" fill="white" font-family="system-ui,-apple-system,Segoe UI,sans-serif" font-size="64" font-weight="700">MealMate</text>
    <text x="0" y="92" fill="rgba(255,255,255,0.92)" font-family="system-ui,-apple-system,Segoe UI,sans-serif" font-size="40" font-weight="500">Plan your delicious week in minutes.</text>
    <text x="0" y="148" fill="rgba(255,255,255,0.85)" font-family="system-ui,-apple-system,Segoe UI,sans-serif" font-size="28">Weekly meal plans • Aisle-grouped grocery lists • Price comparison</text>
  </g>
  <g transform="translate(720,290)">
    <rect width="400" height="260" rx="32" fill="url(#card)" opacity="0.96"/>
    <g transform="translate(28,28)">
      <rect width="106" height="106" rx="20" fill="#ecfdf5"/>
      <text x="53" y="76" font-size="64" text-anchor="middle">🥗</text>
      <rect x="120" y="0" width="106" height="106" rx="20" fill="#fffbeb"/>
      <text x="173" y="76" font-size="64" text-anchor="middle">🍝</text>
      <rect x="240" y="0" width="106" height="106" rx="20" fill="#f5f3ff"/>
      <text x="293" y="76" font-size="64" text-anchor="middle">🍜</text>
      <rect x="0" y="124" width="346" height="14" rx="7" fill="#10b981"/>
      <rect x="0" y="150" width="280" height="12" rx="6" fill="#e2e8f0"/>
      <rect x="0" y="172" width="200" height="12" rx="6" fill="#e2e8f0"/>
    </g>
  </g>
</svg>
